<svg width="224" height="19" viewBox="0 0 224 19" fill="none" xmlns="http://www.w3.org/2000/svg">
<path d="M1.848 18H0.504L7.824 1.056H8.904L16.224 18H14.808L12.36 12.288H4.296L1.848 18ZM11.808 11.04L8.328 2.88L4.824 11.04H11.808ZM33.1984 1.2V18H32.1424L20.6464 3.552V18H19.3984V1.2H20.4544L31.9504 15.696V1.2H33.1984ZM52.3234 1.2V18H51.2674L39.7714 3.552V18H38.5234V1.2H39.5794L51.0754 15.696V1.2H52.3234ZM56.8324 18H55.4884L62.8084 1.056H63.8884L71.2084 18H69.7924L67.3444 12.288H59.2804L56.8324 18ZM66.7924 11.04L63.3124 2.88L59.8084 11.04H66.7924Z" fill="white"/>
<path d="M72.6788 9.6C72.6788 7.12 73.5028 5.056 75.1508 3.408C76.8148 1.744 78.9668 0.912 81.6068 0.912C84.2308 0.912 86.3668 1.704 88.0148 3.288C89.6948 4.872 90.5348 6.976 90.5348 9.6C90.5348 12.128 89.6868 14.208 87.9908 15.84C86.3108 17.472 84.1828 18.288 81.6068 18.288C78.9988 18.288 76.8548 17.496 75.1748 15.912C73.5108 14.328 72.6788 12.224 72.6788 9.6ZM76.7588 9.6C76.7588 11.024 77.2308 12.232 78.1748 13.224C79.1028 14.2 80.2468 14.688 81.6068 14.688C83.1428 14.688 84.3348 14.216 85.1828 13.272C86.0308 12.296 86.4548 11.072 86.4548 9.6C86.4548 8.08 85.9908 6.856 85.0628 5.928C84.1188 4.984 82.9668 4.512 81.6068 4.512C80.1988 4.512 79.0388 4.984 78.1268 5.928C77.2148 6.872 76.7588 8.096 76.7588 9.6ZM104.148 12.024H100.572V8.424H107.748V15.912C107.028 16.632 106.068 17.208 104.868 17.64C103.7 18.072 102.564 18.288 101.46 18.288C98.644 18.288 96.436 17.504 94.836 15.936C93.252 14.368 92.46 12.256 92.46 9.6C92.46 7.12 93.236 5.056 94.788 3.408C96.356 1.744 98.42 0.912 100.98 0.912C103.188 0.912 105.02 1.496 106.476 2.664L104.868 5.76C104.532 5.408 104.036 5.112 103.38 4.872C102.74 4.632 102.092 4.512 101.436 4.512C99.948 4.512 98.756 4.952 97.86 5.832C96.98 6.712 96.54 7.968 96.54 9.6C96.54 11.152 96.988 12.392 97.884 13.32C98.796 14.232 100.004 14.688 101.508 14.688C101.956 14.688 102.46 14.6 103.02 14.424C103.548 14.248 103.924 14.056 104.148 13.848V12.024ZM112.802 18H108.938L115.922 1.2H119.354L126.338 18H122.234L120.842 14.472H114.194L112.802 18ZM119.402 10.872L117.53 6.12L115.634 10.872H119.402ZM143.128 1.2V18H140.056L132.088 7.92V18H128.488V1.2H131.56L139.528 11.328V1.2H143.128ZM157.649 18H147.449V1.2H157.409V4.8H151.289V7.752H156.689V11.352H151.289V14.4H157.649V18ZM167.422 13.392C167.422 12.688 166.598 11.944 164.95 11.16C164.47 10.952 164.046 10.76 163.678 10.584C163.326 10.392 162.926 10.136 162.478 9.816C162.046 9.48 161.686 9.136 161.398 8.784C161.126 8.432 160.886 7.992 160.678 7.464C160.486 6.936 160.398 6.368 160.414 5.76C160.414 4.416 160.91 3.272 161.902 2.328C162.894 1.384 164.206 0.912 165.838 0.912C167.982 0.912 169.63 1.528 170.782 2.76L168.718 5.64C168.254 5.208 167.846 4.912 167.494 4.752C167.158 4.592 166.718 4.512 166.174 4.512C165.646 4.512 165.23 4.624 164.926 4.848C164.638 5.072 164.494 5.376 164.494 5.76C164.494 6.192 164.662 6.576 164.998 6.912C165.35 7.248 165.782 7.528 166.294 7.752C166.822 7.96 167.39 8.224 167.998 8.544C168.606 8.864 169.166 9.208 169.678 9.576C170.206 9.928 170.638 10.432 170.974 11.088C171.326 11.728 171.502 12.48 171.502 13.344C171.502 14.784 170.95 15.968 169.846 16.896C168.774 17.824 167.406 18.288 165.742 18.288C164.526 18.288 163.374 18.04 162.286 17.544C161.182 17.048 160.438 16.376 160.054 15.528L162.238 12.912C162.67 13.472 163.214 13.912 163.87 14.232C164.526 14.536 165.182 14.688 165.838 14.688C166.334 14.688 166.718 14.576 166.99 14.352C167.278 14.112 167.422 13.792 167.422 13.392ZM173.413 9.6C173.413 7.12 174.237 5.056 175.885 3.408C177.549 1.744 179.701 0.912 182.341 0.912C184.965 0.912 187.101 1.704 188.749 3.288C190.429 4.872 191.269 6.976 191.269 9.6C191.269 12.128 190.421 14.208 188.725 15.84C187.045 17.472 184.917 18.288 182.341 18.288C179.733 18.288 177.589 17.496 175.909 15.912C174.245 14.328 173.413 12.224 173.413 9.6ZM177.493 9.6C177.493 11.024 177.965 12.232 178.909 13.224C179.837 14.2 180.981 14.688 182.341 14.688C183.877 14.688 185.069 14.216 185.917 13.272C186.765 12.296 187.189 11.072 187.189 9.6C187.189 8.08 186.725 6.856 185.797 5.928C184.853 4.984 183.701 4.512 182.341 4.512C180.933 4.512 179.773 4.984 178.861 5.928C177.949 6.872 177.493 8.096 177.493 9.6ZM203.628 1.2H207.492L200.94 18H197.988L191.268 1.2H195.372L199.596 12.288L203.628 1.2ZM209.692 18H205.828L212.812 1.2H216.244L223.228 18H219.124L217.732 14.472H211.084L209.692 18ZM216.292 10.872L214.42 6.12L212.524 10.872H216.292Z" fill="#27CC55"/>
</svg>
